<?xml version="1.0" standalone="no"?>
<!DOCTYPE svg PUBLIC "-//W3C//DTD SVG 20010904//EN"
 "http://www.w3.org/TR/2001/REC-SVG-20010904/DTD/svg10.dtd">
<svg version="1.0" xmlns="http://www.w3.org/2000/svg"
 width="320.000000pt" height="320.000000pt" viewBox="0 0 320.000000 320.000000"
 preserveAspectRatio="xMidYMid meet">

<g transform="translate(0.000000,320.000000) scale(0.100000,-0.100000)"
fill="#000000" stroke="none">
<path d="M1399 3025 c-171 -28 -288 -65 -434 -138 -404 -201 -681 -561 -777
-1010 -31 -147 -31 -427 0 -574 43 -201 131 -401 249 -565 116 -162 319 -340
485 -424 37 -19 70 -34 73 -34 3 0 5 169 5 375 l0 375 358 0 c196 0 389 5 427
10 211 30 405 209 455 420 16 67 16 197 0 265 -21 93 -70 175 -150 256 -125
127 -242 169 -467 169 l-123 0 0 -109 0 -109 138 -4 c123 -3 143 -6 193 -29
79 -37 133 -90 171 -166 81 -164 10 -362 -160 -445 l-67 -33 -387 -3 -388 -3
0 450 0 451 -110 0 -110 0 0 -732 -1 -733 -70 73 c-249 259 -370 646 -315
1012 40 265 157 494 350 686 231 230 496 348 817 361 697 30 1279 -528 1279
-1227 0 -582 -399 -1072 -982 -1207 -82 -19 -409 -23 -463 -6 l-30 9 -3 142
-3 142 158 0 c233 0 359 14 476 54 139 48 244 114 352 221 179 180 265 388
265 645 0 258 -88 471 -270 650 -104 102 -212 170 -347 216 -129 44 -239 54
-579 54 l-274 0 0 -560 0 -560 110 0 110 0 2 448 3 447 215 -1 c245 0 293 -9
425 -74 241 -119 386 -352 386 -620 0 -268 -145 -502 -386 -620 -141 -70 -161
-73 -532 -78 l-333 -4 0 -337 0 -338 108 -26 c162 -40 268 -51 427 -44 213 10
388 53 570 142 404 198 691 564 786 1005 20 89 23 135 23 300 0 165 -3 211
-23 300 -122 566 -554 997 -1124 1121 -123 27 -387 34 -508 14z"/>
</g>
</svg>
